League Gothic-Roman.ufo
<glyph name="exclam" format="1">
  <advance width="189"/>
  <unicode hex="0021"/>
  <outline>
    <contour>
      <point x="42" y="111" type="line"/>
      <point x="147" y="111" type="line"/>
      <point x="147" y="0" type="line"/>
      <point x="42" y="0" type="line"/>
    </contour>
    <contour>
      <point x="36" y="735" type="line"/>
      <point x="153" y="735" type="line"/>
      <point x="126" y="198" type="line"/>
      <point x="63" y="198" type="line"/>
    </contour>
  </outline>
</glyph>
<glyph name="quotedbl" format="1">
  <advance width="291"/>
  <unicode hex="0022"/>
  <outline>
    <contour>
      <point x="43" y="466" type="line"/>
      <point x="28" y="735" type="line"/>
      <point x="133" y="735" type="line"/>
      <point x="118" y="466" type="line"/>
    </contour>
    <contour>
      <point x="178" y="466" type="line"/>
      <point x="163" y="735" type="line"/>
      <point x="268" y="735" type="line"/>
      <point x="253" y="466" type="line"/>
    </contour>
  </outline>
</glyph>
<glyph name="quotesingle" format="1">
  <advance width="141"/>
  <unicode hex="0027"/>
  <outline>
    <contour>
      <point x="34" y="466" type="line"/>
      <point x="19" y="735" type="line"/>
      <point x="124" y="735" type="line"/>
      <point x="109" y="466" type="line"/>
    </contour>
  </outline>
</glyph>
<glyph name="parenright" format="1">
  <advance width="274"/>
  <unicode hex="0029"/>
  <outline>
    <contour>
      <point x="99" y="776" type="line"/>
      <point x="151" y="692"/>
      <point x="190" y="604"/>
      <point x="220" y="493" type="curve" smooth="yes"/>
      <point x="235" y="437"/>
      <point x="242" y="378"/>
      <point x="242" y="315" type="curve" smooth="yes"/>
      <point x="242" y="190"/>
      <point x="206" y="75"/>
      <point x="170" y="-9" type="curve" smooth="yes"/>
      <point x="149" y="-58"/>
      <point x="125" y="-104"/>
      <point x="99" y="-145" type="curve"/>
      <point x="20" y="-104" type="line"/>
      <point x="67" y="-36"/>
      <point x="99" y="43"/>
      <point x="126" y="145" type="curve" smooth="yes"/>
      <point x="139" y="196"/>
      <point x="146" y="252"/>
      <point x="146" y="315" type="curve" smooth="yes"/>
      <point x="146" y="440"/>
      <point x="114" y="543"/>
      <point x="83" y="618" type="curve" smooth="yes"/>
      <point x="64" y="661"/>
      <point x="43" y="700"/>
      <point x="20" y="735" type="curve"/>
    </contour>
  </outline>
</glyph>
<glyph name="asterisk" format="1">
  <advance width="331"/>
  <unicode hex="002A"/>
  <outline>
    <contour>
      <point x="128" y="735" type="line"/>
      <point x="203" y="735" type="line"/>
      <point x="194" y="649" type="line"/>
      <point x="274" y="683" type="line"/>
      <point x="295" y="611" type="line"/>
      <point x="211" y="594" type="line"/>
      <point x="267" y="527" type="line"/>
      <point x="203" y="488" type="line"/>
      <point x="165" y="562" type="line"/>
      <point x="128" y="488" type="line"/>
      <point x="64" y="527" type="line"/>
      <point x="120" y="594" type="line"/>
      <point x="36" y="611" type="line"/>
      <point x="57" y="683" type="line"/>
      <point x="137" y="649" type="line"/>
    </contour>
  </outline>
</glyph>
<glyph name="plus" format="1">
  <advance width="518"/>
  <unicode hex="002B"/>
  <outline>
    <contour>
      <point x="36" y="401" type="line"/>
      <point x="217" y="401" type="line"/>
      <point x="217" y="570" type="line"/>
      <point x="301" y="570" type="line"/>
      <point x="301" y="401" type="line"/>
      <point x="482" y="401" type="line"/>
      <point x="482" y="317" type="line"/>
      <point x="301" y="317" type="line"/>
      <point x="301" y="148" type="line"/>
      <point x="217" y="148" type="line"/>
      <point x="217" y="317" type="line"/>
      <point x="36" y="317" type="line"/>
    </contour>
  </outline>
</glyph>
<glyph name="greater" format="1">
  <advance width="517"/>
  <unicode hex="003E"/>
  <outline>
    <contour>
      <point x="481" y="317" type="line"/>
      <point x="36" y="85" type="line"/>
      <point x="36" y="182" type="line"/>
      <point x="377" y="356" type="line"/>
      <point x="36" y="530" type="line"/>
      <point x="36" y="627" type="line"/>
      <point x="481" y="395" type="line"/>
    </contour>
  </outline>
</glyph>
<glyph name="E" format="1">
  <advance width="307"/>
  <unicode hex="0045"/>
  <outline>
    <contour>
      <point x="40" y="735" type="line"/>
      <point x="287" y="735" type="line"/>
      <point x="287" y="624" type="line"/>
      <point x="148" y="624" type="line"/>
      <point x="148" y="431" type="line"/>
      <point x="248" y="431" type="line"/>
      <point x="248" y="313" type="line"/>
      <point x="148" y="313" type="line"/>
      <point x="148" y="111" type="line"/>
      <point x="287" y="111" type="line"/>
      <point x="287" y="0" type="line"/>
      <point x="40" y="0" type="line"/>
    </contour>
    <contour>
      <point x="276" y="10" type="move" name="ogonek"/>
    </contour>
    <contour>
      <point x="154" y="0" type="move" name="bottom"/>
    </contour>
    <contour>
      <point x="154" y="735" type="move" name="top"/>
    </contour>
  </outline>
</glyph>
<glyph name="I" format="1">
  <advance width="188"/>
  <unicode hex="0049"/>
  <outline>
    <contour>
      <point x="40" y="735" type="line"/>
      <point x="148" y="735" type="line"/>
      <point x="148" y="0" type="line"/>
      <point x="40" y="0" type="line"/>
    </contour>
    <contour>
      <point x="169" y="10" type="move" name="ogonek"/>
    </contour>
    <contour>
      <point x="94" y="735" type="move" name="top"/>
    </contour>
  </outline>
</glyph>
<glyph name="J" format="1">
  <advance width="207"/>
  <unicode hex="004A"/>
  <outline>
    <contour>
      <point x="6" y="99" type="line"/>
      <point x="27" y="96"/>
      <point x="43" y="101"/>
      <point x="55" y="117" type="curve"/>
      <point x="61" y="124"/>
      <point x="64" y="136"/>
      <point x="64" y="153" type="curve" smooth="yes"/>
      <point x="64" y="735" type="line"/>
      <point x="172" y="735" type="line"/>
      <point x="172" y="136" type="line" smooth="yes"/>
      <point x="172" y="96"/>
      <point x="162" y="59"/>
      <point x="137" y="32" type="curve" smooth="yes"/>
      <point x="112" y="5"/>
      <point x="70" y="-11"/>
      <point x="6" y="-7" type="curve"/>
    </contour>
    <contour>
      <point x="104" y="735" type="move" name="top"/>
    </contour>
  </outline>
</glyph>
<glyph name="V" format="1">
  <advance width="350"/>
  <unicode hex="0056"/>
  <outline>
    <contour>
      <point x="236" y="735" type="line"/>
      <point x="341" y="735" type="line"/>
      <point x="229" y="0" type="line"/>
      <point x="121" y="0" type="line"/>
      <point x="9" y="735" type="line"/>
      <point x="114" y="735" type="line"/>
      <point x="168" y="331" type="line"/>
      <point x="172" y="300" type="line"/>
      <point x="178" y="300" type="line"/>
      <point x="182" y="331" type="line"/>
    </contour>
  </outline>
</glyph>
<glyph name="X" format="1">
  <advance width="360"/>
  <unicode hex="0058"/>
  <outline>
    <contour>
      <point x="114" y="0" type="line"/>
      <point x="8" y="0" type="line"/>
      <point x="127" y="386" type="line"/>
      <point x="10" y="735" type="line"/>
      <point x="116" y="735" type="line"/>
      <point x="175" y="549" type="line"/>
      <point x="178" y="540" type="line"/>
      <point x="182" y="540" type="line"/>
      <point x="185" y="549" type="line"/>
      <point x="244" y="735" type="line"/>
      <point x="350" y="735" type="line"/>
      <point x="233" y="386" type="line"/>
      <point x="352" y="0" type="line"/>
      <point x="246" y="0" type="line"/>
      <point x="184" y="219" type="line"/>
      <point x="182" y="228" type="line"/>
      <point x="178" y="228" type="line"/>
      <point x="176" y="219" type="line"/>
    </contour>
  </outline>
</glyph>
<glyph name="Y" format="1">
  <advance width="342"/>
  <unicode hex="0059"/>
  <outline>
    <contour>
      <point x="167" y="500" type="line"/>
      <point x="170" y="493" type="line"/>
      <point x="172" y="493" type="line"/>
      <point x="175" y="500" type="line"/>
      <point x="229" y="735" type="line"/>
      <point x="335" y="735" type="line"/>
      <point x="225" y="313" type="line"/>
      <point x="225" y="0" type="line"/>
      <point x="117" y="0" type="line"/>
      <point x="117" y="313" type="line"/>
      <point x="7" y="735" type="line"/>
      <point x="113" y="735" type="line"/>
    </contour>
    <contour>
      <point x="171" y="735" type="move" name="top"/>
    </contour>
  </outline>
</glyph>
<glyph name="bracketleft" format="1">
  <advance width="263"/>
  <unicode hex="005B"/>
  <outline>
    <contour>
      <point x="235" y="639" type="line"/>
      <point x="136" y="639" type="line"/>
      <point x="136" y="-8" type="line"/>
      <point x="235" y="-8" type="line"/>
      <point x="235" y="-104" type="line"/>
      <point x="40" y="-104" type="line"/>
      <point x="40" y="-8" type="line"/>
      <point x="40" y="735" type="line"/>
      <point x="235" y="735" type="line"/>
    </contour>
  </outline>
</glyph>
<glyph name="backslash" format="1">
  <advance width="387"/>
  <unicode hex="005C"/>
  <outline>
    <contour>
      <point x="383" y="-88" type="line"/>
      <point x="301" y="-88" type="line"/>
      <point x="4" y="826" type="line"/>
      <point x="83" y="826" type="line"/>
    </contour>
  </outline>
</glyph>
<glyph name="underscore" format="1">
  <advance width="591"/>
  <unicode hex="005F"/>
  <outline>
    <contour>
      <point x="36" y="-75" type="line"/>
      <point x="555" y="-75" type="line"/>
      <point x="555" y="-159" type="line"/>
      <point x="36" y="-159" type="line"/>
    </contour>
  </outline>
</glyph>
<glyph name="f" format="1">
  <advance width="232"/>
  <unicode hex="0066"/>
  <outline>
    <contour>
      <point x="61" y="0" type="line"/>
      <point x="61" y="456" type="line"/>
      <point x="10" y="456" type="line"/>
      <point x="10" y="547" type="line"/>
      <point x="61" y="547" type="line"/>
      <point x="61" y="555" type="line"/>
      <point x="61" y="562" type="line" smooth="yes"/>
      <point x="61" y="590"/>
      <point x="62" y="635"/>
      <point x="76" y="672" type="curve" smooth="yes"/>
      <point x="90" y="709"/>
      <point x="118" y="739"/>
      <point x="177" y="739" type="curve" smooth="yes"/>
      <point x="193" y="739"/>
      <point x="204" y="738"/>
      <point x="212" y="735" type="curve"/>
      <point x="224" y="732" type="line"/>
      <point x="224" y="645" type="line"/>
      <point x="221" y="646"/>
      <point x="218" y="646"/>
      <point x="215" y="647" type="curve"/>
      <point x="208" y="648"/>
      <point x="201" y="649"/>
      <point x="194" y="649" type="curve" smooth="yes"/>
      <point x="177" y="649"/>
      <point x="169" y="634"/>
      <point x="165" y="615" type="curve" smooth="yes"/>
      <point x="163" y="605"/>
      <point x="162" y="595"/>
      <point x="162" y="585" type="curve" smooth="yes"/>
      <point x="162" y="575"/>
      <point x="162" y="567"/>
      <point x="162" y="561" type="curve" smooth="yes"/>
      <point x="162" y="553" type="line"/>
      <point x="162" y="547" type="line"/>
      <point x="213" y="547" type="line"/>
      <point x="213" y="456" type="line"/>
      <point x="162" y="456" type="line"/>
      <point x="162" y="0" type="line"/>
    </contour>
  </outline>
</glyph>
<glyph name="p" format="1">
  <advance width="335"/>
  <unicode hex="0070"/>
  <outline>
    <contour>
      <point x="40" y="547" type="line"/>
      <point x="141" y="547" type="line"/>
      <point x="141" y="511" type="line"/>
      <point x="158" y="527"/>
      <point x="173" y="539"/>
      <point x="193" y="548" type="curve"/>
      <point x="202" y="553"/>
      <point x="212" y="555"/>
      <point x="221" y="555" type="curve" smooth="yes"/>
      <point x="249" y="555"/>
      <point x="268" y="539"/>
      <point x="281" y="519" type="curve"/>
      <point x="293" y="498"/>
      <point x="299" y="471"/>
      <point x="299" y="448" type="curve" smooth="yes"/>
      <point x="299" y="99" type="line" smooth="yes"/>
      <point x="299" y="76"/>
      <point x="293" y="49"/>
      <point x="281" y="29" type="curve" smooth="yes"/>
      <point x="268" y="8"/>
      <point x="249" y="-8"/>
      <point x="221" y="-8" type="curve" smooth="yes"/>
      <point x="202" y="-8"/>
      <point x="182" y="3"/>
      <point x="167" y="14" type="curve" smooth="yes"/>
      <point x="158" y="21"/>
      <point x="150" y="28"/>
      <point x="141" y="36" type="curve"/>
      <point x="141" y="-188" type="line"/>
      <point x="40" y="-188" type="line"/>
    </contour>
    <contour>
      <point x="141" y="120" type="line" smooth="yes"/>
      <point x="141" y="104"/>
      <point x="156" y="87"/>
      <point x="171" y="87" type="curve" smooth="yes"/>
      <point x="186" y="87"/>
      <point x="198" y="101"/>
      <point x="198" y="120" type="curve" smooth="yes"/>
      <point x="198" y="427" type="line" smooth="yes"/>
      <point x="198" y="446"/>
      <point x="186" y="460"/>
      <point x="171" y="460" type="curve" smooth="yes"/>
      <point x="156" y="460"/>
      <point x="141" y="446"/>
      <point x="141" y="427" type="curve" smooth="yes"/>
    </contour>
  </outline>
</glyph>
<glyph name="braceright" format="1">
  <advance width="336"/>
  <unicode hex="007D"/>
  <outline>
    <contour>
      <point x="242" y="369" type="line" smooth="yes"/>
      <point x="242" y="362"/>
      <point x="245" y="345"/>
      <point x="254" y="330" type="curve" smooth="yes"/>
      <point x="263" y="314"/>
      <point x="279" y="301"/>
      <point x="306" y="301" type="curve"/>
      <point x="306" y="221" type="line"/>
      <point x="279" y="220"/>
      <point x="263" y="206"/>
      <point x="254" y="191" type="curve" smooth="yes"/>
      <point x="245" y="175"/>
      <point x="242" y="160"/>
      <point x="242" y="153" type="curve" smooth="yes"/>
      <point x="242" y="-41" type="line" smooth="yes"/>
      <point x="242" y="-116"/>
      <point x="228" y="-161"/>
      <point x="194" y="-188" type="curve" smooth="yes"/>
      <point x="160" y="-215"/>
      <point x="105" y="-222"/>
      <point x="28" y="-221" type="curve"/>
      <point x="28" y="-137" type="line"/>
      <point x="71" y="-137"/>
      <point x="100" y="-134"/>
      <point x="119" y="-119" type="curve" smooth="yes"/>
      <point x="138" y="-104"/>
      <point x="146" y="-81"/>
      <point x="146" y="-41" type="curve" smooth="yes"/>
      <point x="146" y="153" type="line" smooth="yes"/>
      <point x="146" y="205"/>
      <point x="169" y="236"/>
      <point x="208" y="261" type="curve"/>
      <point x="169" y="285"/>
      <point x="146" y="316"/>
      <point x="146" y="369" type="curve" smooth="yes"/>
      <point x="146" y="563" type="line" smooth="yes"/>
      <point x="146" y="603"/>
      <point x="138" y="626"/>
      <point x="119" y="641" type="curve" smooth="yes"/>
      <point x="100" y="656"/>
      <point x="71" y="659"/>
      <point x="28" y="659" type="curve"/>
      <point x="28" y="743" type="line"/>
      <point x="105" y="744"/>
      <point x="160" y="737"/>
      <point x="194" y="710" type="curve" smooth="yes"/>
      <point x="228" y="683"/>
      <point x="242" y="638"/>
      <point x="242" y="563" type="curve" smooth="yes"/>
    </contour>
  </outline>
</glyph>
<glyph name="Aring" format="1">
  <advance width="374"/>
  <unicode hex="00C5"/>
  <outline>
    <contour>
      <point x="10" y="0" type="line"/>
      <point x="121" y="735" type="line"/>
      <point x="253" y="735" type="line"/>
      <point x="364" y="0" type="line"/>
      <point x="259" y="0" type="line"/>
      <point x="239" y="150" type="line"/>
      <point x="135" y="150" type="line"/>
      <point x="115" y="0" type="line"/>
    </contour>
    <contour>
      <point x="193" y="496" type="line"/>
      <point x="190" y="515" type="line"/>
      <point x="184" y="515" type="line"/>
      <point x="181" y="496" type="line"/>
      <point x="150" y="264" type="line"/>
      <point x="224" y="264" type="line"/>
    </contour>
    <contour>
      <point x="113" y="901"/>
      <point x="147" y="930"/>
      <point x="188" y="930" type="curve" smooth="yes"/>
      <point x="229" y="930"/>
      <point x="262" y="901"/>
      <point x="262" y="860" type="curve" smooth="yes"/>
      <point x="262" y="819"/>
      <point x="229" y="790"/>
      <point x="188" y="790" type="curve" smooth="yes"/>
      <point x="147" y="790"/>
      <point x="113" y="819"/>
      <point x="113" y="860" type="curve" smooth="yes"/>
    </contour>
    <contour>
      <point x="151" y="841"/>
      <point x="169" y="825"/>
      <point x="188" y="825" type="curve" smooth="yes"/>
      <point x="207" y="825"/>
      <point x="225" y="841"/>
      <point x="225" y="860" type="curve" smooth="yes"/>
      <point x="225" y="879"/>
      <point x="207" y="895"/>
      <point x="188" y="895" type="curve" smooth="yes"/>
      <point x="169" y="895"/>
      <point x="151" y="879"/>
      <point x="151" y="860" type="curve" smooth="yes"/>
    </contour>
  </outline>
</glyph>
<glyph name="Thorn" format="1">
  <advance width="354"/>
  <unicode hex="00DE"/>
  <outline>
    <contour>
      <point x="40" y="735" type="line"/>
      <point x="147" y="735" type="line"/>
      <point x="147" y="617" type="line"/>
      <point x="148" y="617" type="line" smooth="yes"/>
      <point x="195" y="617"/>
      <point x="242" y="605"/>
      <point x="278" y="571" type="curve" smooth="yes"/>
      <point x="314" y="537"/>
      <point x="338" y="481"/>
      <point x="338" y="397" type="curve" smooth="yes"/>
      <point x="338" y="313"/>
      <point x="314" y="258"/>
      <point x="278" y="224" type="curve" smooth="yes"/>
      <point x="242" y="190"/>
      <point x="195" y="176"/>
      <point x="148" y="176" type="curve"/>
      <point x="148" y="0" type="line"/>
      <point x="40" y="0" type="line"/>
    </contour>
    <contour>
      <point x="148" y="286" type="line"/>
      <point x="181" y="286"/>
      <point x="202" y="292"/>
      <point x="214" y="309" type="curve" smooth="yes"/>
      <point x="226" y="325"/>
      <point x="229" y="352"/>
      <point x="229" y="393" type="curve" smooth="yes"/>
      <point x="229" y="434"/>
      <point x="226" y="463"/>
      <point x="214" y="481" type="curve" smooth="yes"/>
      <point x="202" y="499"/>
      <point x="181" y="507"/>
      <point x="148" y="507" type="curve"/>
    </contour>
  </outline>
</glyph>
<glyph name="igrave" format="1">
  <advance width="181"/>
  <unicode hex="00EC"/>
  <outline>
    <contour>
      <point x="40" y="0" type="line"/>
      <point x="40" y="547" type="line"/>
      <point x="141" y="547" type="line"/>
      <point x="141" y="0" type="line"/>
    </contour>
    <contour>
      <point x="89" y="727" type="line"/>
      <point x="141" y="637" type="line"/>
      <point x="63" y="637" type="line"/>
      <point x="-16" y="727" type="line"/>
    </contour>
  </outline>
</glyph>
<glyph name="iacute" format="1">
  <advance width="181"/>
  <unicode hex="00ED"/>
  <outline>
    <contour>
      <point x="40" y="0" type="line"/>
      <point x="40" y="547" type="line"/>
      <point x="141" y="547" type="line"/>
      <point x="141" y="0" type="line"/>
    </contour>
    <contour>
      <point x="197" y="727" type="line"/>
      <point x="118" y="637" type="line"/>
      <point x="40" y="637" type="line"/>
      <point x="92" y="727" type="line"/>
    </contour>
  </outline>
</glyph>
<glyph name="idieresis" format="1">
  <advance width="182"/>
  <unicode hex="00EF"/>
  <outline>
    <contour>
      <point x="40" y="0" type="line"/>
      <point x="40" y="547" type="line"/>
      <point x="141" y="547" type="line"/>
      <point x="141" y="0" type="line"/>
    </contour>
    <contour>
      <point x="-26" y="735" type="line"/>
      <point x="67" y="735" type="line"/>
      <point x="67" y="637" type="line"/>
      <point x="-26" y="637" type="line"/>
    </contour>
    <contour>
      <point x="115" y="735" type="line"/>
      <point x="208" y="735" type="line"/>
      <point x="208" y="637" type="line"/>
      <point x="115" y="637" type="line"/>
    </contour>
  </outline>
</glyph>
<glyph name="oslash" format="1">
  <advance width="321"/>
  <unicode hex="00F8"/>
  <outline>
    <contour>
      <point x="61" y="-38" type="line"/>
      <point x="76" y="21" type="line"/>
      <point x="53" y="42"/>
      <point x="41" y="70"/>
      <point x="36" y="94" type="curve" smooth="yes"/>
      <point x="33" y="107"/>
      <point x="31" y="121"/>
      <point x="31" y="136" type="curve" smooth="yes"/>
      <point x="31" y="411" type="line"/>
      <point x="34" y="464"/>
      <point x="50" y="503"/>
      <point x="85" y="533" type="curve" smooth="yes"/>
      <point x="102" y="548"/>
      <point x="127" y="555"/>
      <point x="160" y="555" type="curve" smooth="yes"/>
      <point x="180" y="555"/>
      <point x="197" y="551"/>
      <point x="212" y="546" type="curve"/>
      <point x="222" y="585" type="line"/>
      <point x="259" y="585" type="line"/>
      <point x="244" y="526" type="line"/>
      <point x="267" y="505"/>
      <point x="277" y="478"/>
      <point x="284" y="455" type="curve"/>
      <point x="287" y="442"/>
      <point x="289" y="428"/>
      <point x="290" y="414" type="curve"/>
      <point x="290" y="133" type="line"/>
      <point x="287" y="80"/>
      <point x="271" y="43"/>
      <point x="236" y="14" type="curve" smooth="yes"/>
      <point x="218" y="-1"/>
      <point x="193" y="-8"/>
      <point x="160" y="-8" type="curve" smooth="yes"/>
      <point x="141" y="-8"/>
      <point x="125" y="-5"/>
      <point x="110" y="0" type="curve"/>
      <point x="100" y="-38" type="line"/>
    </contour>
    <contour>
      <point x="126" y="213" type="line"/>
      <point x="187" y="450" type="line"/>
      <point x="182" y="461"/>
      <point x="175" y="467"/>
      <point x="160" y="467" type="curve" smooth="yes"/>
      <point x="141" y="467"/>
      <point x="133" y="454"/>
      <point x="129" y="439" type="curve"/>
      <point x="126" y="431"/>
      <point x="125" y="422"/>
      <point x="126" y="411" type="curve"/>
    </contour>
    <contour>
      <point x="179" y="81"/>
      <point x="188" y="93"/>
      <point x="192" y="108" type="curve"/>
      <point x="195" y="116"/>
      <point x="196" y="125"/>
      <point x="195" y="136" type="curve"/>
      <point x="195" y="333" type="line"/>
      <point x="134" y="96" type="line"/>
      <point x="139" y="86"/>
      <point x="148" y="81"/>
      <point x="160" y="81" type="curve" smooth="yes"/>
    </contour>
    <contour>
      <point x="161" y="547" type="move" name="top"/>
    </contour>
  </outline>
</glyph>
<glyph name="Dcroat" format="1">
  <advance width="372"/>
  <unicode hex="0110"/>
  <outline>
    <contour>
      <point x="340" y="223"/>
      <point x="336" y="132"/>
      <point x="308" y="76" type="curve" smooth="yes"/>
      <point x="279" y="20"/>
      <point x="225" y="0"/>
      <point x="125" y="0" type="curve" smooth="yes"/>
      <point x="40" y="0" type="line"/>
      <point x="40" y="735" type="line"/>
      <point x="125" y="735" type="line" smooth="yes"/>
      <point x="225" y="735"/>
      <point x="279" y="715"/>
      <point x="308" y="659" type="curve" smooth="yes"/>
      <point x="336" y="603"/>
      <point x="340" y="511"/>
      <point x="340" y="367" type="curve" smooth="yes"/>
    </contour>
    <contour>
      <point x="148" y="108" type="line"/>
      <point x="185" y="108"/>
      <point x="206" y="112"/>
      <point x="217" y="148" type="curve" smooth="yes"/>
      <point x="222" y="165"/>
      <point x="226" y="191"/>
      <point x="227" y="226" type="curve" smooth="yes"/>
      <point x="228" y="261"/>
      <point x="228" y="308"/>
      <point x="228" y="368" type="curve" smooth="yes"/>
      <point x="228" y="428"/>
      <point x="228" y="475"/>
      <point x="227" y="510" type="curve" smooth="yes"/>
      <point x="226" y="544"/>
      <point x="222" y="570"/>
      <point x="217" y="588" type="curve" smooth="yes"/>
      <point x="206" y="623"/>
      <point x="185" y="627"/>
      <point x="148" y="627" type="curve"/>
    </contour>
    <contour>
      <point x="-19" y="410" type="line"/>
      <point x="175" y="410" type="line"/>
      <point x="175" y="331" type="line"/>
      <point x="-19" y="331" type="line"/>
    </contour>
  </outline>
</glyph>
<glyph name="Emacron" format="1">
  <advance width="307"/>
  <unicode hex="0112"/>
  <outline>
    <contour>
      <point x="40" y="735" type="line"/>
      <point x="287" y="735" type="line"/>
      <point x="287" y="624" type="line"/>
      <point x="148" y="624" type="line"/>
      <point x="148" y="431" type="line"/>
      <point x="248" y="431" type="line"/>
      <point x="248" y="313" type="line"/>
      <point x="148" y="313" type="line"/>
      <point x="148" y="111" type="line"/>
      <point x="287" y="111" type="line"/>
      <point x="287" y="0" type="line"/>
      <point x="40" y="0" type="line"/>
    </contour>
    <contour>
      <point x="58" y="909" type="line"/>
      <point x="252" y="909" type="line"/>
      <point x="252" y="830" type="line"/>
      <point x="58" y="830" type="line"/>
    </contour>
  </outline>
</glyph>
<glyph name="Ebreve" format="1">
  <advance width="307"/>
  <unicode hex="0114"/>
  <outline>
    <contour>
      <point x="40" y="735" type="line"/>
      <point x="287" y="735" type="line"/>
      <point x="287" y="624" type="line"/>
      <point x="148" y="624" type="line"/>
      <point x="148" y="431" type="line"/>
      <point x="248" y="431" type="line"/>
      <point x="248" y="313" type="line"/>
      <point x="148" y="313" type="line"/>
      <point x="148" y="111" type="line"/>
      <point x="287" y="111" type="line"/>
      <point x="287" y="0" type="line"/>
      <point x="40" y="0" type="line"/>
    </contour>
    <contour>
      <point x="265" y="871" type="line"/>
      <point x="248" y="854"/>
      <point x="228" y="840"/>
      <point x="201" y="831" type="curve"/>
      <point x="188" y="826"/>
      <point x="172" y="824"/>
      <point x="155" y="824" type="curve" smooth="yes"/>
      <point x="120" y="824"/>
      <point x="93" y="835"/>
      <point x="74" y="847" type="curve" smooth="yes"/>
      <point x="63" y="854"/>
      <point x="53" y="862"/>
      <point x="45" y="871" type="curve"/>
      <point x="99" y="917" type="line"/>
      <point x="106" y="908"/>
      <point x="117" y="901"/>
      <point x="131" y="897" type="curve" smooth="yes"/>
      <point x="138" y="895"/>
      <point x="146" y="894"/>
      <point x="155" y="894" type="curve" smooth="yes"/>
      <point x="174" y="894"/>
      <point x="187" y="898"/>
      <point x="198" y="905" type="curve"/>
      <point x="204" y="908"/>
      <point x="209" y="912"/>
      <point x="213" y="917" type="curve"/>
    </contour>
  </outline>
</glyph>
<glyph name="lcommaaccent" format="1">
  <advance width="181"/>
  <unicode hex="013C"/>
  <outline>
    <contour>
      <point x="40" y="0" type="line"/>
      <point x="40" y="735" type="line"/>
      <point x="141" y="735" type="line"/>
      <point x="141" y="0" type="line"/>
    </contour>
    <contour>
      <point x="135" y="-116" type="line"/>
      <point x="113" y="-181" type="line"/>
      <point x="62" y="-181" type="line"/>
      <point x="82" y="-116" type="line"/>
      <point x="51" y="-116" type="line"/>
      <point x="51" y="-47" type="line"/>
      <point x="135" y="-47" type="line"/>
    </contour>
  </outline>
</glyph>
<glyph name="Lcaron" format="1">
  <advance width="295"/>
  <unicode hex="013D"/>
  <outline>
    <contour>
      <point x="40" y="735" type="line"/>
      <point x="148" y="735" type="line"/>
      <point x="148" y="100" type="line"/>
      <point x="291" y="100" type="line"/>
      <point x="291" y="0" type="line"/>
      <point x="40" y="0" type="line"/>
    </contour>
    <contour>
      <point x="289" y="737" type="line"/>
      <point x="234" y="607" type="line"/>
      <point x="184" y="607" type="line"/>
      <point x="219" y="737" type="line"/>
      <point x="184" y="737" type="line"/>
      <point x="184" y="848" type="line"/>
      <point x="289" y="848" type="line"/>
    </contour>
  </outline>
</glyph>
<glyph name="Ldot" format="1">
  <advance width="295"/>
  <unicode hex="013F"/>
  <outline>
    <contour>
      <point x="40" y="735" type="line"/>
      <point x="148" y="735" type="line"/>
      <point x="148" y="100" type="line"/>
      <point x="291" y="100" type="line"/>
      <point x="291" y="0" type="line"/>
      <point x="40" y="0" type="line"/>
    </contour>
    <contour>
      <point x="186" y="440" type="line"/>
      <point x="291" y="440" type="line"/>
      <point x="291" y="329" type="line"/>
      <point x="186" y="329" type="line"/>
    </contour>
  </outline>
</glyph>
<glyph name="lslash" format="1">
  <advance width="229"/>
  <unicode hex="0142"/>
  <outline>
    <contour>
      <point x="64" y="0" type="line"/>
      <point x="64" y="312" type="line"/>
      <point x="15" y="274" type="line"/>
      <point x="15" y="382" type="line"/>
      <point x="64" y="420" type="line"/>
      <point x="64" y="735" type="line"/>
      <point x="165" y="735" type="line"/>
      <point x="165" y="499" type="line"/>
      <point x="214" y="537" type="line"/>
      <point x="214" y="429" type="line"/>
      <point x="165" y="391" type="line"/>
      <point x="165" y="0" type="line"/>
    </contour>
  </outline>
</glyph>
<glyph name="Eng" format="1">
  <advance width="395"/>
  <unicode hex="014A"/>
  <outline>
    <contour>
      <point x="154" y="383" type="line"/>
      <point x="145" y="417" type="line"/>
      <point x="139" y="417" type="line"/>
      <point x="139" y="383" type="line"/>
      <point x="139" y="0" type="line"/>
      <point x="40" y="0" type="line"/>
      <point x="40" y="735" type="line"/>
      <point x="136" y="735" type="line"/>
      <point x="241" y="352" type="line"/>
      <point x="250" y="318" type="line"/>
      <point x="256" y="318" type="line"/>
      <point x="256" y="352" type="line"/>
      <point x="256" y="735" type="line"/>
      <point x="355" y="735" type="line"/>
      <point x="355" y="0" type="line"/>
      <point x="259" y="0" type="line"/>
    </contour>
    <contour>
      <point x="216" y="-20" type="line"/>
      <point x="233" y="-23"/>
      <point x="248" y="-18"/>
      <point x="258" y="-3" type="curve" smooth="yes"/>
      <point x="263" y="4"/>
      <point x="265" y="16"/>
      <point x="265" y="31" type="curve" smooth="yes"/>
      <point x="265" y="585" type="line"/>
      <point x="355" y="585" type="line"/>
      <point x="355" y="15" type="line" smooth="yes"/>
      <point x="355" y="-22"/>
      <point x="347" y="-59"/>
      <point x="326" y="-84" type="curve" smooth="yes"/>
      <point x="305" y="-109"/>
      <point x="269" y="-125"/>
      <point x="216" y="-121" type="curve"/>
    </contour>
  </outline>
</glyph>
<glyph name="eng" format="1">
  <advance width="337"/>
  <unicode hex="014B"/>
  <outline>
    <contour>
      <point x="163" y="457"/>
      <point x="157" y="451"/>
      <point x="150" y="444" type="curve"/>
      <point x="147" y="440"/>
      <point x="144" y="436"/>
      <point x="141" y="431" type="curve"/>
      <point x="141" y="0" type="line"/>
      <point x="40" y="0" type="line"/>
      <point x="40" y="547" type="line"/>
      <point x="141" y="547" type="line"/>
      <point x="141" y="501" type="line"/>
      <point x="143" y="502"/>
      <point x="147" y="506"/>
      <point x="153" y="512" type="curve" smooth="yes"/>
      <point x="164" y="523"/>
      <point x="179" y="538"/>
      <point x="197" y="548" type="curve" smooth="yes"/>
      <point x="206" y="553"/>
      <point x="214" y="555"/>
      <point x="223" y="555" type="curve" smooth="yes"/>
      <point x="250" y="555"/>
      <point x="269" y="539"/>
      <point x="281" y="519" type="curve" smooth="yes"/>
      <point x="293" y="498"/>
      <point x="299" y="471"/>
      <point x="299" y="448" type="curve" smooth="yes"/>
      <point x="299" y="0" type="line"/>
      <point x="198" y="0" type="line"/>
      <point x="198" y="433" type="line" smooth="yes"/>
      <point x="198" y="454"/>
      <point x="186" y="457"/>
      <point x="174" y="457" type="curve" smooth="yes"/>
    </contour>
    <contour>
      <point x="145" y="-48" type="line"/>
      <point x="165" y="-52"/>
      <point x="178" y="-47"/>
      <point x="190" y="-35" type="curve"/>
      <point x="195" y="-29"/>
      <point x="198" y="-19"/>
      <point x="198" y="-6" type="curve" smooth="yes"/>
      <point x="198" y="452" type="line"/>
      <point x="299" y="452" type="line"/>
      <point x="299" y="-19" type="line" smooth="yes"/>
      <point x="299" y="-50"/>
      <point x="290" y="-80"/>
      <point x="266" y="-100" type="curve" smooth="yes"/>
      <point x="242" y="-121"/>
      <point x="204" y="-135"/>
      <point x="145" y="-132" type="curve"/>
    </contour>
  </outline>
</glyph>
<glyph name="Ohungarumlaut" format="1">
  <advance width="354"/>
  <unicode hex="0150"/>
  <outline>
    <contour>
      <point x="321" y="151" type="line" smooth="yes"/>
      <point x="320" y="121"/>
      <point x="314" y="94"/>
      <point x="303" y="71" type="curve" smooth="yes"/>
      <point x="294" y="51"/>
      <point x="280" y="32"/>
      <point x="260" y="17" type="curve" smooth="yes"/>
      <point x="240" y="1"/>
      <point x="213" y="-8"/>
      <point x="177" y="-8" type="curve" smooth="yes"/>
      <point x="141" y="-8"/>
      <point x="113" y="1"/>
      <point x="93" y="17" type="curve" smooth="yes"/>
      <point x="73" y="32"/>
      <point x="60" y="51"/>
      <point x="51" y="71" type="curve" smooth="yes"/>
      <point x="40" y="94"/>
      <point x="34" y="121"/>
      <point x="33" y="151" type="curve"/>
      <point x="33" y="584" type="line" smooth="yes"/>
      <point x="34" y="613"/>
      <point x="40" y="640"/>
      <point x="51" y="663" type="curve" smooth="yes"/>
      <point x="60" y="683"/>
      <point x="73" y="703"/>
      <point x="93" y="718" type="curve" smooth="yes"/>
      <point x="113" y="733"/>
      <point x="141" y="743"/>
      <point x="177" y="743" type="curve" smooth="yes"/>
      <point x="213" y="743"/>
      <point x="240" y="733"/>
      <point x="260" y="718" type="curve" smooth="yes"/>
      <point x="280" y="703"/>
      <point x="294" y="683"/>
      <point x="303" y="663" type="curve" smooth="yes"/>
      <point x="314" y="640"/>
      <point x="320" y="613"/>
      <point x="321" y="584" type="curve" smooth="yes"/>
    </contour>
    <contour>
      <point x="213" y="584" type="line" smooth="yes"/>
      <point x="213" y="604"/>
      <point x="209" y="618"/>
      <point x="199" y="630" type="curve"/>
      <point x="194" y="635"/>
      <point x="186" y="638"/>
      <point x="177" y="638" type="curve" smooth="yes"/>
      <point x="158" y="638"/>
      <point x="149" y="624"/>
      <point x="145" y="611" type="curve"/>
      <point x="142" y="603"/>
      <point x="141" y="594"/>
      <point x="141" y="584" type="curve" smooth="yes"/>
      <point x="141" y="151" type="line" smooth="yes"/>
      <point x="141" y="130"/>
      <point x="146" y="116"/>
      <point x="156" y="105" type="curve"/>
      <point x="161" y="100"/>
      <point x="168" y="97"/>
      <point x="177" y="97" type="curve" smooth="yes"/>
      <point x="196" y="97"/>
      <point x="205" y="109"/>
      <point x="209" y="124" type="curve"/>
      <point x="212" y="131"/>
      <point x="213" y="140"/>
      <point x="213" y="151" type="curve" smooth="yes"/>
    </contour>
    <contour>
      <point x="183" y="915" type="line"/>
      <point x="104" y="825" type="line"/>
      <point x="26" y="825" type="line"/>
      <point x="78" y="915" type="line"/>
    </contour>
    <contour>
      <point x="331" y="915" type="line"/>
      <point x="252" y="825" type="line"/>
      <point x="174" y="825" type="line"/>
      <point x="226" y="915" type="line"/>
    </contour>
  </outline>
</glyph>
<glyph name="rcaron" format="1">
  <advance width="246"/>
  <unicode hex="0159"/>
  <outline>
    <contour>
      <point x="242" y="443" type="line"/>
      <point x="233" y="446"/>
      <point x="223" y="447"/>
      <point x="214" y="447" type="curve" smooth="yes"/>
      <point x="198" y="447"/>
      <point x="179" y="445"/>
      <point x="163" y="430" type="curve"/>
      <point x="144" y="414"/>
      <point x="141" y="397"/>
      <point x="141" y="380" type="curve" smooth="yes"/>
      <point x="141" y="0" type="line"/>
      <point x="40" y="0" type="line"/>
      <point x="40" y="547" type="line"/>
      <point x="141" y="547" type="line"/>
      <point x="141" y="486" type="line"/>
      <point x="142" y="493"/>
      <point x="149" y="510"/>
      <point x="165" y="526" type="curve" smooth="yes"/>
      <point x="181" y="541"/>
      <point x="205" y="555"/>
      <point x="242" y="555" type="curve"/>
    </contour>
    <contour>
      <point x="71" y="637" type="line"/>
      <point x="2" y="727" type="line"/>
      <point x="94" y="727" type="line"/>
      <point x="124" y="692" type="line"/>
      <point x="155" y="727" type="line"/>
      <point x="247" y="727" type="line"/>
      <point x="178" y="637" type="line"/>
    </contour>
  </outline>
</glyph>
<glyph name="Tbar" format="1">
  <advance width="316"/>
  <unicode hex="0166"/>
  <outline>
    <contour>
      <point x="2" y="624" type="line"/>
      <point x="2" y="735" type="line"/>
      <point x="314" y="735" type="line"/>
      <point x="314" y="624" type="line"/>
      <point x="212" y="624" type="line"/>
      <point x="212" y="0" type="line"/>
      <point x="104" y="0" type="line"/>
      <point x="104" y="624" type="line"/>
    </contour>
    <contour>
      <point x="65" y="550" type="line"/>
      <point x="259" y="550" type="line"/>
      <point x="259" y="471" type="line"/>
      <point x="65" y="471" type="line"/>
    </contour>
  </outline>
</glyph>
<glyph name="Utilde" format="1">
  <advance width="366"/>
  <unicode hex="0168"/>
  <outline>
    <contour>
      <point x="327" y="735" type="line"/>
      <point x="327" y="151" type="line" smooth="yes"/>
      <point x="326" y="121"/>
      <point x="320" y="94"/>
      <point x="309" y="71" type="curve" smooth="yes"/>
      <point x="300" y="51"/>
      <point x="286" y="32"/>
      <point x="266" y="17" type="curve" smooth="yes"/>
      <point x="246" y="1"/>
      <point x="219" y="-8"/>
      <point x="183" y="-8" type="curve" smooth="yes"/>
      <point x="147" y="-8"/>
      <point x="119" y="1"/>
      <point x="99" y="17" type="curve" smooth="yes"/>
      <point x="79" y="32"/>
      <point x="66" y="51"/>
      <point x="57" y="71" type="curve" smooth="yes"/>
      <point x="46" y="94"/>
      <point x="40" y="121"/>
      <point x="39" y="151" type="curve"/>
      <point x="39" y="735" type="line"/>
      <point x="147" y="735" type="line"/>
      <point x="147" y="151" type="line" smooth="yes"/>
      <point x="147" y="130"/>
      <point x="152" y="116"/>
      <point x="162" y="105" type="curve"/>
      <point x="167" y="100"/>
      <point x="174" y="97"/>
      <point x="183" y="97" type="curve" smooth="yes"/>
      <point x="202" y="97"/>
      <point x="211" y="109"/>
      <point x="215" y="124" type="curve"/>
      <point x="218" y="131"/>
      <point x="219" y="140"/>
      <point x="219" y="151" type="curve" smooth="yes"/>
      <point x="219" y="735" type="line"/>
    </contour>
    <contour>
      <point x="125" y="841"/>
      <point x="114" y="837"/>
      <point x="103" y="833" type="curve"/>
      <point x="97" y="830"/>
      <point x="92" y="828"/>
      <point x="87" y="825" type="curve"/>
      <point x="87" y="899" type="line"/>
      <point x="96" y="906"/>
      <point x="108" y="911"/>
      <point x="120" y="915" type="curve" smooth="yes"/>
      <point x="126" y="917"/>
      <point x="133" y="918"/>
      <point x="140" y="918" type="curve" smooth="yes"/>
      <point x="155" y="918"/>
      <point x="170" y="915"/>
      <point x="184" y="910" type="curve"/>
      <point x="198" y="904"/>
      <point x="213" y="900"/>
      <point x="228" y="899" type="curve"/>
      <point x="243" y="899"/>
      <point x="254" y="903"/>
      <point x="265" y="907" type="curve"/>
      <point x="271" y="910"/>
      <point x="276" y="912"/>
      <point x="281" y="915" type="curve"/>
      <point x="281" y="841" type="line"/>
      <point x="272" y="833"/>
      <point x="260" y="828"/>
      <point x="248" y="825" type="curve"/>
      <point x="242" y="823"/>
      <point x="235" y="822"/>
      <point x="228" y="822" type="curve" smooth="yes"/>
      <point x="213" y="822"/>
      <point x="198" y="825"/>
      <point x="185" y="831" type="curve" smooth="yes"/>
      <point x="171" y="837"/>
      <point x="156" y="840"/>
      <point x="140" y="841" type="curve"/>
    </contour>
  </outline>
</glyph>
<glyph name="Zacute" format="1">
  <advance width="306"/>
  <unicode hex="0179"/>
  <outline>
    <contour>
      <point x="10" y="116" type="line"/>
      <point x="179" y="628" type="line"/>
      <point x="34" y="628" type="line"/>
      <point x="34" y="735" type="line"/>
      <point x="296" y="735" type="line"/>
      <point x="296" y="628" type="line"/>
      <point x="124" y="107" type="line"/>
      <point x="296" y="107" type="line"/>
      <point x="296" y="0" type="line"/>
      <point x="10" y="0" type="line"/>
    </contour>
    <contour>
      <point x="233" y="915" type="line"/>
      <point x="154" y="825" type="line"/>
      <point x="76" y="825" type="line"/>
      <point x="128" y="915" type="line"/>
    </contour>
  </outline>
</glyph>
<glyph name="zacute" format="1">
  <advance width="260"/>
  <unicode hex="017A"/>
  <outline>
    <contour>
      <point x="6" y="82" type="line"/>
      <point x="145" y="455" type="line"/>
      <point x="28" y="455" type="line"/>
      <point x="28" y="547" type="line"/>
      <point x="252" y="547" type="line"/>
      <point x="252" y="465" type="line"/>
      <point x="113" y="92" type="line"/>
      <point x="252" y="92" type="line"/>
      <point x="252" y="0" type="line"/>
      <point x="6" y="0" type="line"/>
    </contour>
    <contour>
      <point x="210" y="727" type="line"/>
      <point x="131" y="637" type="line"/>
      <point x="53" y="637" type="line"/>
      <point x="105" y="727" type="line"/>
    </contour>
  </outline>
</glyph>
<glyph name="dotaccent" format="1">
  <advance width="499"/>
  <unicode hex="02D9"/>
  <outline>
    <contour>
      <point x="199" y="735" type="line"/>
      <point x="300" y="735" type="line"/>
      <point x="300" y="634" type="line"/>
      <point x="199" y="634" type="line"/>
    </contour>
    <contour>
      <point x="249.5" y="547" type="move" name="_top"/>
    </contour>
  </outline>
</glyph>
<glyph name="ogonek" format="1">
  <advance width="500"/>
  <unicode hex="02DB"/>
  <outline>
    <contour>
      <point x="170" y="-75"/>
      <point x="186" y="-50"/>
      <point x="203" y="-31" type="curve"/>
      <point x="212" y="-20"/>
      <point x="223" y="-9"/>
      <point x="236" y="0" type="curve"/>
      <point x="284" y="0" type="line"/>
      <point x="267" y="-15"/>
      <point x="255" y="-30"/>
      <point x="246" y="-50" type="curve"/>
      <point x="241" y="-60"/>
      <point x="239" y="-71"/>
      <point x="239" y="-83" type="curve" smooth="yes"/>
      <point x="239" y="-112"/>
      <point x="266" y="-121"/>
      <point x="289" y="-121" type="curve" smooth="yes"/>
      <point x="306" y="-121"/>
      <point x="319" y="-117"/>
      <point x="331" y="-112" type="curve"/>
      <point x="323" y="-179" type="line"/>
      <point x="302" y="-186"/>
      <point x="289" y="-188"/>
      <point x="272" y="-188" type="curve" smooth="yes"/>
      <point x="207" y="-188"/>
      <point x="170" y="-148"/>
      <point x="170" y="-103" type="curve" smooth="yes"/>
    </contour>
    <contour>
      <point x="331" y="10" type="move" name="_ogonek"/>
    </contour>
  </outline>
</glyph>
